# File created by Blade
# Date/Time:  Tue Jan 27 19:23:16 2015
# Frame Rate: 120.000 fps
#------------------------------------------------------
:FULLY-SPECIFIED
:DEGREES
3010
root 2.923257 32.270280 0.955888 -3.378015 -5.772937 -0.198941
Spine 1.177089 -9.348662 0.833835
Head 14.909213 -11.749166 -4.943264
LeftShoulder -7.968216 -3.623583 25.466615
LeftArm -5.760814 43.379338 -105.117270
LeftForeArm 4.253327 -0.000000 15.121628
LeftHand 9.722427 -0.000000 -6.370449
LeftHandThumb1 -26.253704 0.000000 33.147579
RightShoulder -24.112040 -13.374232 -41.809652
RightArm -30.391791 73.115181 10.967885
RightForeArm 22.668282 -0.000000 104.830945
RightHand 28.128679 0.000000 -11.609468
RightHandThumb1 -24.326973 -0.000000 -32.862282
LeftUpLeg 12.990987 7.808099 2.686823
LeftLeg 0.710977 -0.000000 -0.000000
LeftFoot -18.476766 12.924784 -24.674194
LeftToeBase 16.638644 -0.000000 -0.000000
RightUpLeg 9.095946 -2.185473 3.874689
RightLeg 1.045287 -0.000000 -0.000000
RightFoot -12.841391 -14.083263 12.985071
RightToeBase 11.262409 -0.000000 -0.000000
3011
root 2.919033 32.270607 0.954125 -3.377133 -5.699956 -0.182292
Spine 1.169541 -9.342334 0.834829
Head 14.917949 -11.805184 -4.916613
LeftShoulder -7.970051 -3.599403 25.475308
LeftArm -5.732631 43.294209 -105.093473
LeftForeArm 4.290351 -0.000000 15.192572
LeftHand 9.687887 -0.000000 -6.341664
LeftHandThumb1 -26.253704 0.000000 33.147579
RightShoulder -24.087805 -13.132455 -41.906407
RightArm -30.301664 72.870974 10.997144
RightForeArm 22.664341 -0.000000 104.817380
RightHand 28.169888 -0.000000 -11.850757
RightHandThumb1 -24.326973 -0.000000 -32.862282
LeftUpLeg 12.962084 7.770589 2.681262
LeftLeg 0.718321 -0.000000 -0.000000
LeftFoot -18.488669 12.904894 -24.749496
LeftToeBase 16.750808 -0.000000 -0.000000
RightUpLeg 9.101339 -2.219941 3.869248
RightLeg 1.037157 -0.000000 -0.000000
RightFoot -12.862762 -14.116698 12.994155
RightToeBase 11.351238 -0.000000 -0.000000
3012
root 2.915241 32.270274 0.953943 -3.380360 -5.623084 -0.168472
Spine 1.153963 -9.381588 0.835804
Head 14.953141 -11.807266 -4.900544
LeftShoulder -7.992050 -3.578508 25.491971
LeftArm -5.738201 43.183871 -105.090046
LeftForeArm 4.255112 -0.000000 15.244053
LeftHand 9.780515 -0.000000 -6.459394
LeftHandThumb1 -26.253704 0.000000 33.147579
RightShoulder -24.013472 -13.048132 -41.932310
RightArm -30.258881 72.872140 10.987008
RightForeArm 22.597062 0.000000 104.790645
RightHand 28.168947 0.000000 -11.803921
RightHandThumb1 -24.326973 -0.000000 -32.862282
LeftUpLeg 12.938388 7.744869 2.678281
LeftLeg 0.753536 -0.000000 -0.000000
LeftFoot -18.434262 12.851690 -24.652962
LeftToeBase 16.570684 -0.000000 -0.000000
RightUpLeg 9.118270 -2.274037 3.861594
RightLeg 1.022908 -0.000000 -0.000000
RightFoot -12.875005 -14.143120 12.972708
RightToeBase 11.289898 -0.000000 -0.000000
3013
root 2.911969 32.270177 0.952271 -3.381622 -5.554233 -0.158169
Spine 1.156301 -9.364899 0.850972
Head 14.944248 -11.881833 -4.893853
LeftShoulder -7.998034 -3.551735 25.492060
LeftArm -5.688484 43.150713 -105.053818
LeftForeArm 4.247760 -0.000000 15.321777
LeftHand 9.769607 0.000000 -6.470808
LeftHandThumb1 -26.253704 0.000000 33.147579
RightShoulder -24.001222 -13.012299 -41.950623
RightArm -30.119184 72.895337 11.094516
RightForeArm 22.638508 -0.000000 104.771048
RightHand 28.176928 -0.000000 -11.553020
RightHandThumb1 -24.326973 -0.000000 -32.862282
LeftUpLeg 12.913925 7.686109 2.672191
LeftLeg 0.760227 -0.000000 -0.000000
LeftFoot -18.463593 12.834275 -24.776233
LeftToeBase 16.742760 -0.000000 -0.000000
RightUpLeg 9.125273 -2.310391 3.858303
RightLeg 1.019236 -0.000000 -0.000000
RightFoot -12.902901 -14.154286 13.004552
RightToeBase 11.322160 -0.000000 -0.000000
3014
root 2.909697 32.270072 0.951034 -3.385690 -5.487004 -0.140281
Spine 1.156369 -9.363998 0.854075
Head 14.950533 -11.911139 -4.888659
LeftShoulder -8.004912 -3.501744 25.496058
LeftArm -5.606827 43.126936 -105.017575
LeftForeArm 4.331359 -0.000000 15.364172
LeftHand 9.783703 -0.000000 -6.446691
LeftHandThumb1 -26.253704 0.000000 33.147579
RightShoulder -23.958728 -12.949366 -41.965425
RightArm -30.055738 72.844850 11.099147
RightForeArm 22.648396 -0.000000 104.750204
RightHand 28.172130 -0.000000 -11.710380
RightHandThumb1 -24.326973 -0.000000 -32.862282
LeftUpLeg 12.894261 7.655208 2.662748
LeftLeg 0.775685 -0.000000 -0.000000
LeftFoot -18.453127 12.805813 -24.753194
LeftToeBase 16.811652 -0.000000 -0.000000
RightUpLeg 9.135911 -2.377182 3.841039
RightLeg 1.013696 -0.000000 -0.000000
RightFoot -12.907885 -14.160952 12.983392
RightToeBase 11.321828 -0.000000 -0.000000
3015
root 2.907350 32.270368 0.949276 -3.383948 -5.429656 -0.128723
Spine 1.158744 -9.318627 0.886567
Head 14.924765 -11.969157 -4.929778
LeftShoulder -7.998368 -3.534856 25.475959
LeftArm -5.608349 43.223849 -105.016786
LeftForeArm 4.231344 -0.000000 15.405917
LeftHand 9.773393 -0.000000 -6.137820
LeftHandThumb1 -26.253704 0.000000 33.147579
RightShoulder -23.967018 -12.908116 -41.988576
RightArm -30.007152 72.820481 11.085982
RightForeArm 22.586598 -0.000000 104.727407
RightHand 28.109327 0.000000 -11.544551
RightHandThumb1 -24.326973 -0.000000 -32.862282
LeftUpLeg 12.870713 7.626718 2.657185
LeftLeg 0.786192 -0.000000 -0.000000
LeftFoot -18.421405 12.785999 -24.729588
LeftToeBase 16.771143 -0.000000 -0.000000
RightUpLeg 9.138110 -2.423275 3.832600
RightLeg 1.007186 -0.000000 -0.000000
RightFoot -12.913216 -14.171607 12.978014
RightToeBase 11.289630 -0.000000 -0.000000
3016
root 2.903630 32.270175 0.949181 -3.388619 -5.357945 -0.118799
Spine 1.145540 -9.387160 0.891928
Head 14.956087 -11.922234 -4.926940
LeftShoulder -8.061372 -3.481807 25.494967
LeftArm -5.568735 43.269103 -105.023589
LeftForeArm 4.275010 0.000000 15.456546
LeftHand 9.640667 -0.000000 -6.122854
LeftHandThumb1 -26.253704 0.000000 33.147579
RightShoulder -23.873015 -12.862979 -41.995335
RightArm -29.826928 72.822925 11.214392
RightForeArm 22.558035 -0.000000 104.709450
RightHand 28.104000 -0.000000 -11.525130
RightHandThumb1 -24.326973 -0.000000 -32.862282
LeftUpLeg 12.854610 7.571929 2.650507
LeftLeg 0.807352 -0.000000 -0.000000
LeftFoot -18.358123 12.749166 -24.663044
LeftToeBase 16.489996 -0.000000 -0.000000
RightUpLeg 9.153022 -2.486904 3.826865
RightLeg 0.999447 -0.000000 -0.000000
RightFoot -12.930461 -14.173522 12.987132
RightToeBase 11.337419 -0.000000 -0.000000
3017
root 2.898398 32.270501 0.946039 -3.385026 -5.293722 -0.113290
Spine 1.141785 -9.376174 0.899818
Head 14.963363 -11.961070 -4.915291
LeftShoulder -8.060433 -3.483575 25.505588
LeftArm -5.541869 43.299168 -105.026125
LeftForeArm 4.289349 -0.000000 15.496484
LeftHand 9.633797 -0.000000 -6.234596
LeftHandThumb1 -26.253704 0.000000 33.147579
RightShoulder -23.848004 -12.871591 -41.981264
RightArm -29.608459 72.848951 11.390160
RightForeArm 22.519367 -0.000000 104.687052
RightHand 28.116273 -0.000000 -11.577795
RightHandThumb1 -24.326973 -0.000000 -32.862282
LeftUpLeg 12.829188 7.529833 2.656348
LeftLeg 0.806057 -0.000000 -0.000000
LeftFoot -18.389973 12.745955 -24.734309
LeftToeBase 16.746510 -0.000000 -0.000000
RightUpLeg 9.129056 -2.474670 3.831571
RightLeg 1.039197 -0.000000 -0.000000
RightFoot -12.973637 -14.192806 13.088579
RightToeBase 11.334538 -0.000000 -0.000000
3018
root 2.894835 32.270586 0.943998 -3.383349 -5.225028 -0.111679
Spine 1.140621 -9.343133 0.927961
Head 14.951144 -12.017417 -4.933954
LeftShoulder -8.050655 -3.502274 25.492944
LeftArm -5.507576 43.302442 -105.003443
LeftForeArm 4.269458 -0.000000 15.484447
LeftHand 9.864624 -0.000000 -6.331684
LeftHandThumb1 -26.253704 0.000000 33.147579
RightShoulder -23.855572 -12.948317 -41.957293
RightArm -29.369065 72.899861 11.582620
RightForeArm 22.511185 -0.000000 104.659402
RightHand 28.127813 -0.000000 -11.453173
RightHandThumb1 -24.326973 -0.000000 -32.862282
LeftUpLeg 12.802980 7.485139 2.660868
LeftLeg 0.821099 -0.000000 -0.000000
LeftFoot -18.375465 12.724485 -24.721301
LeftToeBase 16.829199 -0.000000 -0.000000
RightUpLeg 9.125347 -2.570124 3.830953
RightLeg 1.048773 -0.000000 -0.000000
RightFoot -12.975532 -14.181795 13.049183
RightToeBase 11.317156 -0.000000 -0.000000
